<svg width="48" height="48" xmlns="http://www.w3.org/2000/svg"><path d="M24 13.5c5.765 0 10.5 4.735 10.5 10.5S29.765 34.5 24 34.5 13.5 29.765 13.5 24 18.235 13.5 24 13.5zm0 3a7.5 7.5 0 100 15 7.5 7.5 0 000-15zM48 24c0-2.8-.6-5.6-1.4-8.4-.4-.8-1.4-1.4-2.2-1-.8.4-1.2 1.2-1 2.2.8 2.2 1.2 4.6 1.2 7.2 0 1.2-.2 2.4-.4 3.4-1.8.2-3.2 1.6-3.2 3.4 0 1 .4 2 1.2 2.6C38.8 40 32 44.6 24 44.6 12.6 44.6 3.4 35.4 3.4 24c0-1.2.2-2.4.4-3.4C5.6 20.4 7 19 7 17.2c0-1-.4-2-1.2-2.6C9.2 8 16 3.4 24 3.4c1.8 0 3.6.2 5.2.6.4 1.8 2.2 3 4 2.6C34.8 6.4 36 5 36 3.4 36 1.6 34.4 0 32.6 0c-.8 0-1.6.4-2.2.8C28.2.4 26.2 0 24 0 14.4 0 6 5.8 2.2 14 .8 14.4 0 15.8 0 17.2c0 .6.2 1.2.6 1.8a21.358 21.358 0 00-.6 5c0 13.2 10.8 24 24 24 9.6 0 18-5.8 21.8-14 1.4-.4 2.2-1.8 2.2-3.2 0-.6-.2-1.2-.6-1.8.4-1.6.6-3.2.6-5z"/></svg>