<?xml version="1.0" encoding="UTF-8"?>
<svg width="48px" height="48px" viewBox="0 0 48 48" version="1.1" xmlns="http://www.w3.org/2000/svg" xmlns:xlink="http://www.w3.org/1999/xlink">
    <title>xianzhuang</title>
    <g id="三调建库·资源中心" stroke="none" stroke-width="1" fill="none" fill-rule="evenodd">
        <g id="数据共享-图标说明" transform="translate(-93.000000, -105.000000)" fill="#4074FF" fill-rule="nonzero">
            <g id="xianzhuang" transform="translate(93.000000, 105.000000)">
                <path d="M24,13.5 C29.7645,13.5 34.5,18.2355 34.5,24 C34.5,29.7645 29.7645,34.5 24,34.5 C18.2355,34.5 13.5,29.7645 13.5,24 C13.5,18.2355 18.2355,13.5 24,13.5 Z M24,16.5 C19.8578644,16.5 16.5,19.8578644 16.5,24 C16.5,28.1421356 19.8578644,31.5 24,31.5 C28.1421356,31.5 31.5,28.1421356 31.5,24 C31.5,19.8578644 28.1421356,16.5 24,16.5 Z M48,24 C48,21.1995 47.4,18.4005 46.6005,15.6 C46.2,14.8005 45.1995,14.2005 44.4,14.5995 C43.6005,15 43.2,15.7995 43.3995,16.8 C44.2005,19.0005 44.5995,21.4005 44.5995,24 C44.5995,25.2 44.4,26.4 44.2005,27.4005 C42.4005,27.6 40.9995,28.9995 40.9995,30.7995 C40.9995,31.8 41.4,32.8005 42.1995,33.4005 C38.8005,40.0005 31.9995,44.5995 24,44.5995 C12.6,44.5995 3.4005,35.4 3.4005,24 C3.4005,22.8 3.6,21.6 3.7995,20.5995 C5.5995,20.4 7.0005,19.0005 7.0005,17.2005 C7.0005,16.2 6.6,15.1995 5.8005,14.5995 C9.1995,7.9995 16.0005,3.4005 24,3.4005 C25.8,3.4005 27.6,3.6 29.2005,4.0005 C29.5995,5.8005 31.3995,7.0005 33.1995,6.6 C34.8,6.4005 36,4.9995 36,3.4005 C36,1.6005 34.3995,0 32.5995,0 C31.8,0 31.0005,0.4005 30.4005,0.7995 C28.2,0.4005 26.2005,0 24,0 C14.4,0 6,5.8005 2.2005,13.9995 C0.7995,14.4 0,15.7995 0,17.2005 C0,17.8005 0.1995,18.4005 0.6,19.0005 C0.203569522,20.6375124 0.00217027246,22.3156716 0,24 C0,37.2 10.8,48 24,48 C33.6,48 42,42.1995 45.7995,34.0005 C47.2005,33.6 48,32.2005 48,30.7995 C48,30.1995 47.8005,29.5995 47.4,28.9995 C47.8005,27.4005 48,25.8 48,24 L48,24 Z" id="形状"></path>
            </g>
        </g>
    </g>
</svg>